<svg width="48" height="48" viewBox="0 0 48 48" fill="none" xmlns="http://www.w3.org/2000/svg">
<path fill-rule="evenodd" clip-rule="evenodd" d="M8 6V40H42V42H7C6.44772 42 6 41.5523 6 41V6H8Z" fill="black"/>
<path fill-rule="evenodd" clip-rule="evenodd" d="M6 17C6 16.4477 6.44772 16 7 16H8.87115C11.3026 16 13.6843 16.7409 15.8282 18.1398C17.9693 19.5368 19.8121 21.5492 21.2308 23.9988C22.5133 26.2137 24.1496 27.981 25.9954 29.1854C27.8383 30.3879 29.844 31.0001 31.8596 31H39.5C40.0523 31 40.5 31.4477 40.5 32C40.5 32.5523 40.0523 33 39.5 33H31.8597C29.4283 33.0002 27.0465 32.2593 24.9025 30.8604C22.7615 29.4633 20.9186 27.4509 19.5 25.0011C18.2174 22.7864 16.5811 21.0192 14.7353 19.8148C12.8924 18.6123 10.8868 18 8.87117 18H7C6.44772 18 6 17.5523 6 17Z" fill="black"/>
<path fill-rule="evenodd" clip-rule="evenodd" d="M35.293 26.5105C35.6836 26.1201 36.3168 26.1202 36.7073 26.5108L41.4873 31.2928C41.8776 31.6833 41.8776 32.3162 41.4873 32.7067L36.7073 37.4887C36.3168 37.8793 35.6836 37.8795 35.293 37.489C34.9024 37.0986 34.9023 36.4654 35.2927 36.0748L39.3661 31.9998L35.2927 27.9247C34.9023 27.5341 34.9024 26.901 35.293 26.5105Z" fill="black"/>
<rect x="26" y="14" width="14" height="3" rx="0.5" fill="black"/>
</svg>
