<svg width="48" height="48" viewBox="0 0 48 48" fill="none" xmlns="http://www.w3.org/2000/svg">
<path fill-rule="evenodd" clip-rule="evenodd" d="M24 11C25.3807 11 26.5 9.88071 26.5 8.5C26.5 7.11929 25.3807 6 24 6C22.6193 6 21.5 7.11929 21.5 8.5C21.5 9.88071 22.6193 11 24 11ZM24 13C26.4853 13 28.5 10.9853 28.5 8.5C28.5 6.01472 26.4853 4 24 4C21.5147 4 19.5 6.01472 19.5 8.5C19.5 10.9853 21.5147 13 24 13Z" fill="#333333"/>
<path fill-rule="evenodd" clip-rule="evenodd" d="M29.9313 7.00005C36.9583 9.45156 42 16.137 42 23.9999C42 29.5234 39.5122 34.4658 35.5959 37.7676L36.8537 39.3232C41.2227 35.6544 44 30.1515 44 23.9999C44 15.264 38.399 7.83624 30.5922 5.11182L29.9313 7.00005ZM24 41.9999C25.1617 41.9999 26.2977 41.8899 27.3981 41.6797L27.7561 43.6478C26.5395 43.879 25.2839 43.9999 24 43.9999C23.0348 43.9999 22.0855 43.9316 21.1569 43.7994L21.435 41.8186C22.2728 41.9381 23.1292 41.9999 24 41.9999ZM12.9533 38.2126C8.72191 34.9191 6 29.7774 6 23.9999C6 16.137 11.0417 9.45156 18.0687 7.00005L17.4078 5.11182C9.601 7.83624 4 15.264 4 23.9999C4 30.4301 7.03454 36.1516 11.7497 39.8103L12.9533 38.2126Z" fill="#333333"/>
<path fill-rule="evenodd" clip-rule="evenodd" d="M17 16C16.4078 16 15.8767 16.2562 15.509 16.6669C15.3193 16.8789 15.0483 17 14.7639 17H12C11.4477 17 11 17.4477 11 18C11 18.5523 11.4477 19 12 19H14.7639C15.0483 19 15.3193 19.1211 15.509 19.3331C15.8767 19.7439 16.4078 20 17 20C17.3659 20 17.7061 19.9026 17.9993 19.733C18.3087 19.5541 18.69 19.5538 18.9996 19.7324C19.3092 19.911 19.5 20.2412 19.5 20.5987V25.9928L19.4999 26V29C19.4999 29.0669 19.4934 29.1323 19.4808 29.1955C19.4649 29.2967 19.4284 29.4996 19.3399 29.834C19.2257 30.2654 19.0586 30.7943 18.8518 31.3916C18.5454 32.2768 18.1618 33.284 17.7567 34.3009C17.7094 34.4196 17.6398 34.5282 17.5517 34.6207C17.215 34.9741 17.0075 35.4476 17.0002 35.9711C16.9984 36.0986 16.9723 36.2245 16.9232 36.3422C16.5048 37.345 16.1054 38.2741 15.7862 39.007C15.5763 39.489 15.4015 39.8853 15.2792 40.1609C15.0873 40.5934 15.0216 40.9768 15.0606 41.2572C15.0926 41.4872 15.1951 41.6917 15.5034 41.868C15.9504 42.1237 16.5184 41.9982 16.816 41.578L18.316 39.4604C18.3296 39.4412 18.3425 39.4215 18.3547 39.4013L18.986 38.3616C19.1158 38.1478 19.3209 37.9905 19.561 37.9205C20.3934 37.678 21 36.9085 21 36C21 35.8658 20.9869 35.7357 20.9623 35.6105C20.9141 35.3657 20.9592 35.1117 21.0887 34.8984L23.3952 31.0995C23.5765 30.8008 23.9005 30.6184 24.2499 30.6184C24.5993 30.6184 24.9234 30.8008 25.1047 31.0995L30.1452 39.4013C30.1574 39.4215 30.1703 39.4412 30.1839 39.4603L31.6839 41.578C31.9815 41.9982 32.5495 42.1237 32.9965 41.868C33.3047 41.6917 33.4072 41.4872 33.4392 41.2572C33.4782 40.9767 33.4125 40.5933 33.2207 40.1609C33.0984 39.8853 32.9236 39.489 32.7137 39.007C32.2936 38.0425 31.7343 36.7373 31.1755 35.3714C30.6157 34.0031 30.0611 32.585 29.6481 31.3916C29.4413 30.7943 29.2742 30.2654 29.16 29.834C29.1385 29.7526 29.12 29.6789 29.104 29.6122C29.0858 29.5361 29.0766 29.458 29.0766 29.3797V25.6256C29.0766 25.2484 29.2889 24.9033 29.6256 24.7331C30.443 24.32 31 23.4741 31 22.5C31 21.8003 30.7138 21.1692 30.2496 20.7142C29.9594 20.4299 29.8701 19.9982 30.0237 19.622C30.1773 19.2458 30.5432 19 30.9495 19H36C36.5523 19 37 18.5523 37 18C37 17.4477 36.5523 17 36 17H19.2361C18.9517 17 18.6807 16.8789 18.491 16.6669C18.1233 16.2562 17.5922 16 17 16ZM17.4999 28.9158C17.4884 28.9813 17.4622 29.1116 17.4065 29.3222C17.31 29.6867 17.1604 30.164 16.9619 30.7374C16.6855 31.5359 16.3386 32.4512 15.9647 33.3948C15.4176 34.0318 15.0666 34.8449 15.0085 35.7368C14.6202 36.6648 14.2511 37.5229 13.9526 38.2085C13.7447 38.6857 13.5717 39.0778 13.4511 39.3498C13.1697 39.984 12.9717 40.7566 13.0797 41.5327C13.1946 42.3592 13.6496 43.1117 14.5104 43.6041C15.8512 44.371 17.5552 43.9945 18.448 42.7341L19.948 40.6164C19.9889 40.5588 20.0277 40.4997 20.0643 40.4393L20.5103 39.7048C21.9701 39.109 23 37.6759 23 36C23 35.876 22.9943 35.7532 22.9832 35.6317L24.2499 33.5453L28.4356 40.4393C28.4722 40.4996 28.511 40.5587 28.5519 40.6164L30.0519 42.7341C30.9447 43.9945 32.6487 44.371 33.9895 43.6041C34.8503 43.1117 35.3052 42.3592 35.4202 41.5327C35.5281 40.7566 35.3302 39.984 35.0488 39.3498C34.9282 39.0778 34.7552 38.6857 34.5473 38.2085C34.131 37.2524 33.5779 35.9618 33.0266 34.6141C32.4723 33.2592 31.9335 31.88 31.538 30.7374C31.3395 30.164 31.1899 29.6867 31.0934 29.3222C31.0875 29.2998 31.0819 29.2783 31.0766 29.2578V26.1896C32.2382 25.3769 33 24.0281 33 22.5C33 21.9742 32.9096 21.4693 32.7437 21H36C37.6569 21 39 19.6569 39 18C39 16.3431 37.6569 15 36 15H19.6458C18.9413 14.3785 18.0144 14 17 14C15.9856 14 15.0587 14.3785 14.3542 15H12C10.3431 15 9 16.3431 9 18C9 19.6569 10.3431 21 12 21H14.3542C15.0587 21.6215 15.9856 22 17 22C17.1692 22 17.3361 21.9894 17.5 21.969V25.9882L17.5 25.9954L17.4999 28.9158ZM19.4874 29.1522C19.4886 29.1439 19.4892 29.1406 19.4892 29.1406L19.4874 29.1522ZM19.4892 29.1406C19.4892 29.1406 19.4885 29.1451 19.4874 29.1522L19.4892 29.1406Z" fill="#333333"/>
<path fill-rule="evenodd" clip-rule="evenodd" d="M28.5 25C29.8807 25 31 23.8807 31 22.5C31 21.1193 29.8807 20 28.5 20C27.1193 20 26 21.1193 26 22.5C26 23.8807 27.1193 25 28.5 25ZM28.5 27C30.9853 27 33 24.9853 33 22.5C33 20.0147 30.9853 18 28.5 18C26.0147 18 24 20.0147 24 22.5C24 24.9853 26.0147 27 28.5 27Z" fill="#333333"/>
<path fill-rule="evenodd" clip-rule="evenodd" d="M19 38C20.1046 38 21 37.1046 21 36C21 34.8954 20.1046 34 19 34C17.8954 34 17 34.8954 17 36C17 37.1046 17.8954 38 19 38ZM19 40C21.2091 40 23 38.2091 23 36C23 33.7909 21.2091 32 19 32C16.7909 32 15 33.7909 15 36C15 38.2091 16.7909 40 19 40Z" fill="#333333"/>
<path fill-rule="evenodd" clip-rule="evenodd" d="M17 20C18.1046 20 19 19.1046 19 18C19 16.8954 18.1046 16 17 16C15.8954 16 15 16.8954 15 18C15 19.1046 15.8954 20 17 20ZM17 22C19.2091 22 21 20.2091 21 18C21 15.7909 19.2091 14 17 14C14.7909 14 13 15.7909 13 18C13 20.2091 14.7909 22 17 22Z" fill="#333333"/>
</svg>
