<svg width="48" height="48" viewBox="0 0 48 48" fill="none" xmlns="http://www.w3.org/2000/svg">
<path fill-rule="evenodd" clip-rule="evenodd" d="M22.9198 31C21.5241 31 20.1554 31.2147 18.9251 31.6207L15.2528 32.8277C12.9159 33.598 10.3507 33.9958 7.75813 33.996H7C6.44772 33.996 6 33.5483 6 32.996C6 32.4437 6.44772 31.996 7 31.996H7.75797C10.1512 31.9958 12.5038 31.628 14.6268 30.9283L18.2985 29.7213C19.743 29.2448 21.3246 29 22.9198 29C24.5151 29 26.0963 29.2447 27.541 29.7213L22.9198 31ZM27.541 29.7213L31.2128 30.9323C33.3353 31.6318 35.6874 31.9996 38.08 32H41C41.5523 32 42 32.4477 42 33C42 33.5523 41.5523 34 41 34H38.08C35.4878 33.9996 32.9233 33.6019 30.5867 32.8317L26.9146 31.6207C25.6842 31.2148 24.3154 31 22.9198 31" fill="black"/>
<path fill-rule="evenodd" clip-rule="evenodd" d="M36.293 27.5105C36.6836 27.1201 37.3168 27.1202 37.7073 27.5108L42.4873 32.2928C42.8776 32.6833 42.8776 33.3162 42.4873 33.7067L37.7073 38.4887C37.3168 38.8793 36.6836 38.8795 36.293 38.489C35.9024 38.0986 35.9023 37.4654 36.2927 37.0748L40.3661 32.9998L36.2927 28.9247C35.9023 28.5341 35.9024 27.901 36.293 27.5105Z" fill="black"/>
<path fill-rule="evenodd" clip-rule="evenodd" d="M8 6V40H42V42H7C6.44772 42 6 41.5523 6 41V6H8Z" fill="black"/>
<rect x="26" y="13" width="14" height="4" rx="0.5" fill="black"/>
</svg>
