<svg width="274" height="274" viewBox="0 0 274 274" fill="none" xmlns="http://www.w3.org/2000/svg">
<path fill-rule="evenodd" clip-rule="evenodd" d="M137 74.2083C151.187 74.2083 162.688 62.7077 162.688 48.5208C162.688 34.3339 151.187 22.8333 137 22.8333C122.813 22.8333 111.312 34.3339 111.312 48.5208C111.312 62.7077 122.813 74.2083 137 74.2083ZM151.271 48.5208C151.271 56.4023 144.881 62.7916 137 62.7916C129.119 62.7916 122.729 56.4023 122.729 48.5208C122.729 40.6392 129.119 34.2499 137 34.2499C144.881 34.2499 151.271 40.6392 151.271 48.5208Z" fill="white"/>
<path fill-rule="evenodd" clip-rule="evenodd" d="M68.5 119.875H81.9386L99.8958 120V125.407V148.349V148.39L99.8953 165.061C99.8296 165.435 99.6801 166.179 99.3621 167.381C98.8113 169.462 97.9573 172.186 96.8242 175.459C95.2464 180.017 93.2667 185.242 91.1318 190.628L85.6735 203.998C83.457 209.295 81.35 214.193 79.6461 218.107C78.4593 220.831 77.4718 223.069 76.7834 224.622C75.177 228.242 74.0468 232.652 74.6633 237.083C75.3192 241.8 77.9165 246.096 82.8302 248.907C90.4839 253.284 100.211 251.135 105.307 243.941L113.87 231.852L114.534 230.841L117.078 226.651L129.5 206L131.196 203.397L138.427 191.488L162.32 230.841C162.529 231.185 162.75 231.523 162.984 231.852L171.546 243.941C176.643 251.135 186.37 253.284 194.023 248.907C198.937 246.096 201.534 241.8 202.19 237.083C202.806 232.652 201.677 228.242 200.07 224.622C199.382 223.069 198.394 220.831 197.208 218.107C194.831 212.649 191.674 205.282 188.527 197.589C185.363 189.855 182.287 181.982 180.029 175.459C178.896 172.186 178.042 169.462 177.491 167.381L177.396 167.013V149.5C177.396 149.5 177.491 128.591 177.491 119.875H186.913H205.5C214.958 119.875 222.625 112.208 222.625 102.75C222.625 93.2919 214.958 85.625 205.5 85.625H112.145C112.145 85.625 102.832 85.6252 97.0417 85.6252C91.2511 85.6252 81.9386 85.625 81.9386 85.625H68.5C59.0419 85.625 51.375 93.2919 51.375 102.75C51.375 112.208 59.0419 119.875 68.5 119.875ZM128.5 97.0417H68.5C65.3473 97.0417 62.7917 99.5973 62.7917 102.75C62.7917 105.903 65.3473 108.458 68.5 108.458H75.6468H111.312C111.312 108.458 116.924 104.362 119.251 98.6074C119.418 98.1924 120.23 98.2472 120.365 97.9048L122.5 96.9738L128.5 97.0417ZM111.312 148.376V108.458L117.5 102.5L119 98.5L122.5 96.9738L205.5 97.0417C208.653 97.0417 211.208 99.5973 211.208 102.75C211.208 105.903 208.653 108.458 205.5 108.458H178.835H176L166 108.5L165.979 153.916V167.709C165.979 168.156 166.031 168.602 166.135 169.036C166.227 169.417 166.332 169.838 166.455 170.302C167.107 172.765 168.061 175.784 169.241 179.194C171.599 186.006 174.765 194.101 177.96 201.912C181.15 209.709 184.343 217.159 186.741 222.665C187.939 225.416 188.937 227.679 189.635 229.252C190.73 231.72 191.105 233.909 190.882 235.51C190.699 236.823 190.114 237.99 188.355 238.997C185.803 240.456 182.561 239.74 180.862 237.341L172.3 225.253C172.222 225.144 172.148 225.031 172.079 224.916L143.306 177.526C142.271 175.821 140.421 174.78 138.427 174.78C136.432 174.78 134.583 175.821 133.548 177.526L125.672 190.497C117.5 187.5 123 190 115.5 187C114.788 187 107.042 182.699 106.347 182.763C106.789 181.542 107.212 180.35 107.612 179.194C108.793 175.784 109.747 172.765 110.399 170.302C110.904 168.394 111.112 167.235 111.203 166.658C111.275 166.297 111.312 165.924 111.312 165.542V148.417L111.312 148.376ZM90.1129 222.665C90.4337 221.928 106 183.566 106.347 182.763L125.672 190.497L95.9913 237.341C94.2925 239.74 91.0502 240.456 88.4986 238.997C86.7387 237.99 86.1536 236.823 85.9709 235.51C85.7483 233.909 86.1233 231.721 87.2188 229.252C87.9169 227.679 88.9147 225.416 90.1129 222.665Z" fill="white"/>
<path d="M170.858 39.9586C210.97 53.9526 239.75 92.1153 239.75 136.999C239.75 168.529 225.549 196.742 203.193 215.59L210.373 224.47C235.313 203.527 251.166 172.115 251.166 136.999C251.166 87.132 219.194 44.7318 174.63 29.1799L170.858 39.9586Z" fill="white"/>
<path d="M156.397 237.922C150.116 239.122 143.631 239.749 137 239.749C132.029 239.749 127.14 239.397 122.358 238.715L120.771 250.022C126.071 250.776 131.49 251.166 137 251.166C144.329 251.166 151.496 250.476 158.441 249.156L156.397 237.922Z" fill="white"/>
<path d="M34.25 136.999C34.25 169.979 49.7876 199.33 73.9418 218.13L67.0712 227.25C40.1555 206.365 22.8334 173.705 22.8334 136.999C22.8334 87.132 54.8058 44.7318 99.3696 29.1799L103.142 39.9586C63.0297 53.9526 34.25 92.1153 34.25 136.999Z" fill="white"/>
<path d="M107.5 180.5L105.5 185.5L124 192.5L126 189.5L107.5 180.5Z" fill="#1125C3" stroke="#1126C3" stroke-width="0.5"/>
<rect x="108" y="97.1001" width="15" height="11.3" fill="#1529C6"/>
</svg>
