<svg width="48" height="48" viewBox="0 0 48 48" fill="none" xmlns="http://www.w3.org/2000/svg">
<path fill-rule="evenodd" clip-rule="evenodd" d="M38.1808 14.0164C38.724 14.1163 39.0834 14.6376 38.9835 15.1807C37.5257 23.1092 34.0067 28.6069 29.0476 32.1023C24.1117 35.5813 17.8585 36.9999 11.0523 36.9999H7C6.44772 36.9999 6 36.5522 6 35.9999C6 35.4476 6.44772 34.9999 7 34.9999H11.0523C17.6037 34.9999 23.406 33.6318 27.8954 30.4675C32.3616 27.3196 35.6378 22.3172 37.0165 14.8191C37.1164 14.2759 37.6377 13.9165 38.1808 14.0164Z" fill="white"/>
<path fill-rule="evenodd" clip-rule="evenodd" d="M38.6158 13.0294C38.8931 13.0982 39.1277 13.2822 39.2605 13.5352L41.8855 18.5352C42.1422 19.0242 41.9539 19.6287 41.4649 19.8854C40.9759 20.1421 40.3714 19.9538 40.1147 19.4648L38.0127 15.461L34.5656 17.8247C34.1101 18.1371 33.4877 18.021 33.1754 17.5655C32.863 17.11 32.9791 16.4876 33.4346 16.1753L37.8096 13.1753C38.0452 13.0137 38.3386 12.9606 38.6158 13.0294Z" fill="white"/>
<path fill-rule="evenodd" clip-rule="evenodd" d="M8 6V40H42V42H7C6.44772 42 6 41.5523 6 41V6H8Z" fill="white"/>
<rect x="12" y="13" width="14" height="4" rx="0.5" fill="white"/>
</svg>
